<svg width="49" height="49" viewBox="0 0 49 49" fill="none" xmlns="http://www.w3.org/2000/svg">
<path d="M21.9389 7.10758C22.6574 4.89643 25.7856 4.89643 26.5039 7.10758L29.0709 15.0079C29.3923 15.9967 30.3136 16.6662 31.3536 16.6662H39.6604C41.9853 16.6662 42.952 19.6413 41.0712 21.0079L34.3507 25.8905C33.5095 26.5016 33.1574 27.5849 33.4788 28.5737L36.0458 36.474C36.7641 38.6852 34.2336 40.5241 32.3524 39.1575L25.6322 34.2747C24.791 33.6636 23.6519 33.6636 22.8108 34.2747L16.0904 39.1575C14.2095 40.5241 11.6787 38.6852 12.3971 36.474L14.9641 28.5737C15.2854 27.5849 14.9334 26.5016 14.0923 25.8905L7.37185 21.0079C5.49093 19.6413 6.4576 16.6662 8.78253 16.6662H17.0894C18.1292 16.6662 19.0506 15.9967 19.372 15.0079L21.9389 7.10758Z" fill="#FFDB01"/>
</svg>
